<svg width="196" height="196" viewBox="0 0 196 196" fill="none" xmlns="http://www.w3.org/2000/svg">
<path d="M173.414 104.891C173.414 112.481 173.507 119.881 173.376 127.278C173.308 131.118 172.754 134.951 170.997 138.447C168.662 143.093 165.041 146.463 160.527 149.042C150.055 155.025 139.688 161.191 129.227 167.193C122.135 171.263 115.057 175.381 107.785 179.111C100.994 182.594 94.0592 182.14 87.4226 178.392C78.4778 173.34 69.5672 168.227 60.6657 163.099C51.3939 157.757 41.9484 152.68 32.9694 146.882C27.4534 143.32 23.8789 137.777 23.7874 130.917C23.5124 110.286 23.4139 89.6509 23.3906 69.0172C23.3835 62.6904 25.3392 56.8048 29.9299 52.3561C32.5434 49.8234 35.9143 48.0163 39.0928 46.1334C47.8794 40.9285 56.7393 35.8472 65.5792 30.7326C73.0858 26.3893 80.4627 21.7914 88.1643 17.8254C94.1519 14.742 100.719 14.2122 106.952 17.2485C112.796 20.0953 118.397 23.4476 124.061 26.6537C128.774 29.3208 133.42 32.1051 138.102 34.8259C143.472 37.9467 148.853 41.05 154.224 44.1701C157.416 46.0243 160.783 47.6426 163.743 49.815C169.201 53.8217 172.857 59.1285 172.996 66.1424C173.248 78.9925 173.286 91.8467 173.414 104.891ZM128.432 105.273C127.35 104.316 126.33 103.271 125.154 102.448C124.726 102.148 123.739 102.111 123.331 102.405C120.507 104.433 117.787 106.606 114.999 108.685C107.15 114.536 99.2887 120.371 91.4231 126.201C86.0989 130.146 80.7744 134.092 75.4169 137.992C73.7583 139.199 72.1078 139.063 70.597 137.771C69.4996 136.831 68.4325 135.857 67.3399 134.912C62.6934 130.895 58.0313 126.895 53.396 122.865C47.3343 117.594 41.3012 112.29 35.2366 107.022C33.5815 105.585 31.8576 104.226 30.2413 102.894C30.2413 112.118 30.1549 121.135 30.2816 130.148C30.3362 134.029 32.0696 137.434 34.9608 139.927C37.322 141.963 40.0923 143.557 42.792 145.16C48.0274 148.269 53.3442 151.24 58.6209 154.28C63.4697 157.073 68.3102 159.88 73.1361 162.671C95.6105 147.354 118.077 132.043 140.592 116.699C136.459 112.819 132.542 109.141 128.432 105.273ZM139.735 66.4309C143.711 69.6392 147.705 72.8249 151.658 76.0623C155.524 79.2291 159.335 82.463 163.196 85.636C164.298 86.5412 165.489 87.337 166.523 88.0981C166.523 80.7242 166.689 73.5485 166.464 66.385C166.319 61.7248 164.009 57.9317 160.075 55.4157C155.413 52.4337 150.601 49.6838 145.825 46.8813C138.823 42.7724 131.812 38.6789 124.755 34.6668C124.101 34.295 122.864 34.2017 122.275 34.5752C112.859 40.5495 103.491 46.5992 94.1401 52.6759C83.8573 59.3584 73.6022 66.0836 63.3386 72.7956C60.9351 74.3674 58.5456 75.9606 56.0766 77.5923C59.0448 80.1977 61.8018 82.6398 64.5836 85.0533C67.1835 87.3089 69.7642 89.5917 72.4648 91.7213C72.9731 92.1222 74.2143 92.1895 74.7593 91.8447C77.1077 90.3594 79.3345 88.6796 81.584 87.0411C89.6918 81.1355 97.7731 75.1936 105.899 69.3135C111.557 65.2195 117.359 61.3197 122.92 57.1002C125.339 55.2647 126.614 55.6744 128.118 56.8248C132.034 59.819 135.748 63.0775 139.735 66.4309ZM162.933 137.8C157.111 132.279 151.289 126.757 145.566 121.331C123.47 136.386 101.542 151.327 79.4621 166.372C82.9416 168.333 86.3417 170.076 89.561 172.106C93.9749 174.889 98.6761 175.87 103.45 173.8C107.991 171.831 112.286 169.265 116.599 166.804C125.467 161.742 134.283 156.589 143.105 151.448C148.897 148.072 154.709 144.726 160.404 141.194C161.582 140.464 162.286 138.969 162.933 137.8ZM157.345 123.471C160.335 126.195 163.326 128.919 166.316 131.642C166.513 131.581 166.71 131.519 166.906 131.457C166.906 127.474 166.906 123.49 166.906 119.507C166.906 112.938 166.734 106.361 166.998 99.8028C167.092 97.4465 165.876 96.3246 164.483 95.0436C164.216 94.7987 163.837 94.6806 163.556 94.448C158.31 90.1086 153.088 85.7405 147.828 81.4197C140.887 75.7189 133.908 70.066 126.972 64.3594C126.01 63.5679 125.258 63.5093 124.233 64.2721C121.107 66.5983 117.905 68.8217 114.752 71.112C112.318 72.88 109.913 74.6883 107.406 76.5444C110.358 79.2471 113.201 81.8158 116.005 84.4273C120.171 88.307 124.306 92.2199 128.458 96.1132C132.472 99.876 136.511 103.612 140.504 107.396C146.071 112.67 151.606 117.978 157.345 123.471ZM95.304 44.2354C102.447 39.5156 109.591 34.7958 116.75 30.0653C113.486 28.2145 110.217 26.4955 107.085 24.5539C102.002 21.4024 96.6929 20.8909 91.4596 23.6501C84.2879 27.4313 77.3135 31.5895 70.2853 35.6394C61.2787 40.8293 52.2854 46.0426 43.3222 51.3069C39.8064 53.3718 35.9789 55.0302 33.4475 58.3279C39.2056 63.2502 44.9715 68.1792 50.7556 73.1237C61.0508 66.4177 71.2129 59.7851 81.3899 53.1752C85.9327 50.2248 90.5052 47.32 95.304 44.2354ZM48.4794 109.855C49.4169 110.688 50.3428 111.534 51.2938 112.351C55.7584 116.187 60.2265 120.019 64.7 123.845C67.6402 126.359 70.5918 128.861 73.4856 131.323C79.7706 126.605 85.9646 121.956 92.208 117.269C71.6747 99.7291 51.1062 82.1591 30.3985 64.4701C30.1943 66.3596 29.8924 67.9082 29.8821 69.4587C29.8319 77.0459 29.8271 84.634 29.906 92.2207C29.9145 93.037 30.406 93.989 30.9618 94.6269C31.8606 95.6585 32.9936 96.4876 34.0368 97.3916C38.7734 101.496 43.5132 105.597 48.4794 109.855ZM96.8645 84.0109C90.8928 88.3614 84.9212 92.7119 78.8318 97.1482C80.6764 98.6845 82.4784 100.139 84.2287 101.653C88.2621 105.141 92.2605 108.67 96.2979 112.154C97.0626 112.814 97.8081 113.337 98.883 112.326C100.088 111.192 101.57 110.357 102.905 109.356C108.387 105.249 113.858 101.129 119.435 96.9371C116.325 93.9908 113.243 91.0704 110.162 88.1499C107.773 85.8861 105.432 83.567 102.95 81.4098C102.508 81.0259 101.342 81.0435 100.754 81.3478C99.4524 82.0221 98.3059 82.9962 96.8645 84.0109Z" fill="#4A71FF"/>
</svg>
